<svg version="1.2" xmlns="http://www.w3.org/2000/svg" viewBox="0 0 24 24" width="24" height="24">
	<style>
		.s0 { fill: #ffffff } 
		.s1 { fill: #000000 } 
	</style>
	<path id="Layer 3" class="s0" d="m7 16l2-1 1-1v-3l1-2 3-1 5 2 3 3v6l-3 3h-7l-5-3z"/>
	<path id="Layer 4" fill-rule="evenodd" class="s1" d="m6 19v-3h1v-2h2v-4h1v-2h2v-1h4v1h3v1h1v1h1v1h1v1h1v8h-1v1h-1v1h-1v1h-9v-1h-2v-1h-1v-1h-1v-1zm2 0h1v1h2v1h9v-1h1v-8h-1v2h-1v1h-1v-5h-1v4h-1v1h-1v-6h-1v5h-1v1h-1v-5h-1v7h1v1h1v1h-2v-1h-1v-1h-1v-1h-1z"/>
</svg>