<svg version="1.2" xmlns="http://www.w3.org/2000/svg" viewBox="0 0 24 24" width="24" height="24">
	<style>
		.s0 { fill: #ffffff } 
		.s1 { fill: #000000 } 
	</style>
	<path id="Layer 4" class="s0" d="m7 16l4-2v-6l3 1v3h5l3 3-1 6-8 2-5-3z"/>
	<path id="Layer 3" fill-rule="evenodd" class="s1" d="m7 14h2v-4h1v-2h1v-1h2v1h1v3h5v1h2v1h1v1h1v6h-1v1h-1v1h-1v1h-9v-1h-2v-1h-1v-1h-1v-1h-1v-3h1zm4 3h1v1h1v1h-2v-1h-1v-1h-1v-1h-1v3h1v1h2v1h9v-1h1v-6h-1v1h-1v-2h-1v-1h-1v3h-1v-2h-1v-1h-1v2h-1v-5h-2z"/>
</svg>