<svg version="1.2" xmlns="http://www.w3.org/2000/svg" viewBox="0 0 1667 883" width="3334" height="1766">
	<title>image2vector</title>
	<style>
		.s0 { fill: #000000 } 
	</style>
	<g id="svgg">
		<path id="path0" fill-rule="evenodd" class="s0" d="m520.47 17.14c1.3 5.68 1.37 7.81 1.41 45.01 0.06 44.68 0.76 84.64 1.73 99.09 2.98 44.05 1.4 147.66-2.46 161.88-0.88 3.22-1.85 7.84-2.17 10.27-0.68 5.2-0.92 6.06-3.27 11.2-0.98 2.15-2.15 5.08-2.6 6.51-4.21 13.48-18.26 37.78-27.1 46.89-10.44 10.76-24.14 17.07-52.66 24.27-58.58 14.78-106.93 1.35-125.22-34.77-1.78-3.52-12.15-35.03-13.57-41.27-0.64-2.78-1.73-5.58-2.54-6.5-1.15-1.31-1.52-2.77-1.85-7.39-0.23-3.18-0.97-7.11-1.64-8.79-0.9-2.21-1.42-6.09-1.94-14.41-0.4-6.27-1.31-15.74-2.02-21.07-0.73-5.32-1.51-14.3-1.74-19.95-0.41-9.92-0.47-10.31-1.95-11.1-2.08-1.11-1.97-1.45 1.41-4.21 2.27-1.86 3.12-2.24 3.81-1.67 0.49 0.41 1.75 0.56 2.82 0.35 1.08-0.22 4.41 0.13 7.42 0.77 4.65 0.99 10.46 1.24 38.36 1.63 34.41 0.48 39.17 0.75 40.44 2.29 0.55 0.65 0.8 5.5 0.86 16.37 0.2 33.15 9.98 52.92 26.41 53.37 4.67 0.14 7.49 0.53 8.86 1.23 11.07 5.72 23.85-12.09 28.6-39.82 1.22-7.18 0.85-52.23-0.46-55.64-0.61-1.56-1.06-13.75-1.11-30.26-0.02-4.29 0.3-18.93 0.7-32.54 0.66-22.11 0.61-26.31-0.42-39.7-0.81-10.45-1.01-17.23-0.68-22.45 0.26-4.11 0.52-26.87 0.57-50.57 0.09-42.26 0.12-43.1 1.4-44.09 1.13-0.87 5.81-1 37.11-0.95 28.68 0.03 36.34-0.14 38.42-0.85 3.24-1.1 3.25-1.08 5.07 6.87zm330.3-3.89c1.65 1.15 52.68 1.85 64.45 0.89 9.79-0.8 65.15-0.62 75.21 0.25 5.39 0.46 9.32 0.42 14-0.14 5.87-0.7 7.37-0.64 15.19 0.62 11.34 1.83 20.33 1.89 22.77 0.13 2.26-1.62 7.66-1.21 8.14 0.63 0.26 1 1.43 1.21 8.69 1.58 4.61 0.24 11.74 0.71 15.87 1.04 11.09 0.9 27.15 0.75 35.04-0.33 21.43-2.92 26-3.2 53.52-3.2 27.75-0.01 27.54-0.03 50.13 3.07 7.01 0.96 46.49 0.39 56.98-0.82 3.22-0.37 7.65-0.68 9.84-0.69l3.98-0.01 2.43 9.92c15.04 61.55 17.84 74.32 22.19 101.08 0.17 1.1 1.66 4.03 3.29 6.51 2.65 4.02 2.93 4.8 2.59 7.12-0.68 4.47-0.62 4.98 1.8 14.38 1.3 5.04 3.56 15.73 5.02 23.75 2.94 16.17 4.26 21.75 7.48 31.83 1.2 3.75 2.52 8.74 2.92 11.06 1.68 9.68 5.44 28.19 7.21 35.43 1.04 4.28 2.66 12.77 3.6 18.87 0.95 6.11 2.56 13.66 3.61 16.77 1.53 4.6 2 7.51 2.51 15.47 0.72 11.34 2.53 19.72 4.63 21.42 2.01 1.63 2.79 7.11 1.21 8.5-1.1 0.96-1.05 1.65 1.08 14.68 4.65 28.56 5.2 30.93 11.69 50.35 8.13 24.33 9.11 22.53-11.51 21.23-8.38-0.54-24.47-1.4-35.75-1.91-11.28-0.51-21.17-1.13-21.96-1.37-2.14-0.64-3.28-3.85-22.64-63.42-6.21-19.12-7.91-23.68-9.31-24.88-1.4-1.19-22.05-0.54-25.21 0.79l-1.95 0.82 1.95 0.58c1.07 0.32 5.03 0.87 8.79 1.23 8.66 0.82 10.94 1.27 9.71 1.93-1.83 0.98-6.86 1.3-10.36 0.65-16.05-2.97-17.78-1.87-21.12 13.37-1.25 5.71-3.59 15.81-5.19 22.43-1.6 6.62-4.58 19.51-6.6 28.63-4.86 21.89-4.21 21.29-20.49 19-6.25-0.87-44.96-0.96-56.86-0.12-7.98 0.57-10.51 0.55-11.25-0.06-0.68-0.56-4.64-0.75-14.12-0.67-8.05 0.08-17.21-0.28-23.58-0.91-20.62-2.03-25.78-2.18-50.7-1.49-25.82 0.71-38.47 0.26-48.93-1.74-4.26-0.81-5.2-0.82-5.8-0.09-1.84 2.26-25.51 2.61-31.17 0.46-1.43-0.55-2.47-0.41-5.2 0.68-3.79 1.51-3.95 1.51-33.45-0.36-8.76-0.56-19.02-0.77-26.18-0.55-7.59 0.24-13.8 0.09-17.5-0.42-5.37-0.73-5.92-0.69-8.85 0.6-2.84 1.26-3.81 1.34-10.59 0.92-5.4-0.33-7.45-0.25-7.45 0.29 0 0.46 1.4 0.73 3.81 0.73 3.85 0 7.66 2.09 5.23 2.87-5.69 1.83-37.31 3.07-56.25 2.21-6.45-0.3-20.22-0.97-30.61-1.51-10.38-0.53-21.4-0.96-24.47-0.96-3.68 0-7.36-0.48-10.75-1.4-11.59-3.13-74.11-2.02-81.98 1.46-3.3 1.46-4.37 1.46-14.33 0-4.86-0.71-56.27-0.53-63.16 0.22-3.98 0.44-8.3-1.37-6.52-2.72 1.52-1.15 3.7-6.17 2.99-6.87-1.2-1.21-0.79-3.34 1.18-6.02 1.73-2.36 2.18-4.31 5.52-23.72 2.01-11.64 4.67-26.72 5.94-33.52 8.57-46.21 11.56-63.87 10.66-62.97-1.37 1.37-4.89 16.83-13.96 61.35-6.92 33.95-9.24 44.28-10.19 45.23q-0.66 0.65-0.29-0.65c1.09-3.82 11.18-59.4 17.96-98.93 6.89-40.16 11.93-65.4 19.07-95.5 3.41-14.38 4.44-17.14 3.91-10.41-0.57 7.21-1.33 10.1 13.96-53.2 7.37-30.53 14.23-61.72 13.69-62.27-0.18-0.17-0.51 0.3-0.74 1.04-0.53 1.63-1.87 1.83-1.43 0.21 0.18-0.62 0.52-2.31 0.76-3.74 2.34-13.83 14.28-37.8 23.38-46.93l4.62-4.63 21.16-0.39c11.64-0.21 23.65-0.67 26.7-1.01 9.65-1.1 74.36-2.24 98.98-1.74 12.71 0.25 24.29 0.48 25.72 0.5 1.43 0.01 4.36-0.73 6.51-1.66 4.4-1.89 7.24-2.15 9.13-0.85zm-400.6 7.18c-2.57 0.82-2.65 17.01-0.27 55.39 5.74 92.65 7.57 171.52 4.19 180.92-1.05 2.93-1.5 6.09-1.8 12.66-0.78 17.32-2.79 31.02-5.54 37.77-4.95 12.16-16.1 22.59-33.55 31.39-20.23 10.21-51.29-20.58-55.1-54.64-0.37-3.31-1.1-6.82-1.62-7.81-0.51-0.99-0.93-3.12-0.94-4.73v-2.94l-8.3-2.14c-6.78-1.75-9.32-2.12-13.84-1.98-14.32 0.44-19.12 0.17-23.77-1.31-6.47-2.07-12.18-2.52-14.3-1.14-2.27 1.49-2.38 6.22-0.19 8 1.45 1.17 1.47 1.42 1.52 16.81 0.27 82.83 41.94 132.97 107.72 129.6 17.12-0.88 38.84-5.97 49.92-11.7 1.1-0.57 4.13-1.48 6.72-2.02 7.92-1.65 13.55-6.08 24.96-19.68 2.76-3.29 6.31-7.09 7.89-8.46 3.27-2.82 6.28-9.04 10.76-22.17 8.53-25.06 11.49-57.76 10.26-113.08-0.44-19.59-0.33-53.09 0.24-71.41 0.01-0.61-0.43-5.59-0.99-11.06-1.84-17.85-2.33-37.5-1.56-61.89 0.84-26.64-1.03-71.84-3.07-73.9-1.24-1.26-6.77-1.27-10.36-0.03-4.39 1.54-11.23 1.42-22.82-0.39-10.89-1.7-20.91-1.72-26.16-0.06zm289.56 4.06c-3.85-0.36-5.47 0.33-6.49 2.78-0.46 1.11-0.9 2.01-0.99 2.01-0.08 0-1.73 0.32-3.66 0.71-8.88 1.77-27.43 1.14-25.43-0.86 2.02-2.02-0.32-2.14-26.65-1.37l-14.59 0.42-1.49 9.03c-1.85 11.23-3.4 17.2-9.27 35.68-3.89 12.25-5.44 18.58-9.43 38.72-6.74 33.96-9.17 43.55-13.37 52.84-1.16 2.57-1.56 4.12-1.1 4.27 1.83 0.62-1.97 22.2-5.01 28.47-1.91 3.93-2.02 4.5-1.48 7.95 0.56 3.51 0.31 4.66-4.65 22.12-6.46 22.76-6.68 23.61-9.49 37.62-1.27 6.26-3.06 13.29-4 15.61-1.51 3.78-1.62 4.55-0.98 7.16 0.77 3.16 0.27 7.18-1.56 12.29-1.16 3.25-1.41 6.91-0.36 5.28 0.35-0.54 0.64-1.79 0.64-2.79 0.01-1.12 0.7-2.5 1.8-3.58l1.79-1.76 0.21 2.56c0.74 9.07-5.23 38.56-15.43 76.22-4.85 17.91-8.84 33.58-9.54 37.46-0.52 2.89 0.22 3.28 4.63 2.45 1.76-0.34 9.65-1.63 17.53-2.88 16.17-2.56 48.79-8.95 52.74-10.33 14-4.9 50.75-6.98 67.72-3.85 2.87 0.53 5.65 1.04 6.19 1.12 0.54 0.09 2.59 1.19 4.56 2.45 1.97 1.26 4.91 2.82 6.53 3.48 2.77 1.13 2.93 1.33 2.69 3.37-0.28 2.43 0.3 2.66 3.1 1.21 1.46-0.75 2.33-0.8 4.36-0.21 5.25 1.51 65.51 0.81 97.27-1.14 8.42-0.51 25.85-1.05 38.75-1.2 18.61-0.21 40.77-1.2 54.7-2.44 0.71-0.07-0.17-0.33-1.96-0.59-2.48-0.36-1.56-0.46 3.91-0.46 3.94 0.01 12.88-0.03 19.86-0.1 6.98-0.06 18.71 0.05 26.05 0.26 30.95 0.86 83.46 1.46 88.88 1.01 3.23-0.26 5.07-0.52 4.11-0.58-0.96-0.06-1.96-0.44-2.22-0.86-0.73-1.19 17.12-0.23 24.81 1.34 9.26 1.9 19.34 5 25.41 7.83 3.45 1.6 6.3 2.47 8.38 2.55 1.73 0.06 3.34 0.23 3.58 0.37 0.23 0.15 1.88-0.01 3.67-0.35 1.78-0.33 10.42-1.76 19.2-3.16 13.54-2.17 40.91-7.45 41.37-7.99 3.67-4.24 8.96-22.14 14.57-49.3 1.45-6.99 3.42-15.16 4.39-18.17l1.76-5.46-1.4-2.43-1.4-2.43 3.18-1.36c7.22-3.11 9.83-3.43 29-3.61l18.22-0.17 2.62 1.89c2.9 2.11 3.89 3.94 3 5.61-0.43 0.78 0.33 3.87 2.58 10.53 1.74 5.18 4.93 16.04 7.09 24.14 5.14 19.23 8.5 29.27 12.26 36.59 1.69 3.28 3.17 6.18 3.29 6.45 0.13 0.27-0.24 0.49-0.81 0.49-0.71 0-1.03 0.6-1.03 1.95 0 2.2 0.56 2.37 3.21 1 1.42-0.73 2.36-0.8 4.04-0.29 2.95 0.88 32.72 1.54 42.96 0.95l8.2-0.48-2.14-12.46c-3.51-20.55-9.22-43.14-16.55-65.51-9.8-29.9-13.67-45.11-13.67-53.69 0-3.86-4.82-23.85-9.54-39.59-3.56-11.87-11.41-42.84-10.98-43.28 0.55-0.54 3.21 6.21 9.44 23.93 3.33 9.47 6.92 18.68 7.98 20.48 2.01 3.41 3.09 7.54 1.97 7.54-0.42 0-0.35 1.29 0.17 3.53 0.94 4.02 1.38 4.94 2.43 4.94 0.54 0 0.53-0.23-0.04-0.79-1.05-1.05-1-1.37 0.55-3.15 0.74-0.85 1.15-1.97 0.93-2.54-1.12-2.85-4.51-18.56-6.85-31.72-3-16.93-3.82-20.67-6.5-29.99-1.19-4.11-1.94-8.25-1.95-10.74-0.05-7.97-1.58-13.89-7.03-27.16-1.11-2.68-2.66-7.06-3.45-9.73-1.11-3.75-1.55-4.57-1.93-3.59-0.93 2.37-0.6 6.83 0.78 10.9 1.59 4.67 1.97 10.28 0.74 10.71-0.45 0.15-0.84-0.25-0.87-0.91-0.03-0.84-0.32-0.61-0.94 0.76-0.49 1.07-0.91 1.72-0.93 1.44-0.57-10.07-3.26-25.42-8.81-50.25-5.46-24.49-10.04-47.25-10.47-52.05-2.2-25.01-3.15-27.33-10.94-26.69-5.78 0.47-9.74-0.38-8.33-1.79 1.86-1.86 0.28-1.97-20.25-1.4-27 0.75-29.35 0.68-54.2-1.37-22.18-1.83-47.59-2.44-57.57-1.37-3.53 0.38-12.66 0.3-25.72-0.22-20.5-0.83-38.29-0.25-59.97 1.95-35.78 3.63-47.7 4.33-53.75 3.17-6.41-1.23-29.48-1.1-48.16 0.28-21.29 1.56-43.41 1.99-58.28 1.11-14.98-0.88-31.45-2.48-32.5-3.15-0.39-0.26-20.78-0.66-45.32-0.89-33.15-0.31-47.27-0.68-55.02-1.45-5.73-0.56-11.74-1.15-13.35-1.3zm512.7 115.92c2.79 5.49 11.27 47.72 13.75 68.49 2.59 21.66 5.2 36.86 7.81 45.67l0.9 3.03-1.87 0.78c-2.53 1.04-43.09 0.18-44.64-0.95-1.24-0.91-1.52-6.54-0.37-7.68 0.41-0.41 0.75-1.68 0.75-2.8 0-1.13 0.43-2.9 0.95-3.95 0.62-1.24 1.19-5.95 1.65-13.6 0.87-14.4 2.27-23.31 6.93-44.25 2.2-9.93 3.8-18.85 4.09-22.89 0.42-5.77 0.7-6.92 2.22-8.91 1.48-1.94 1.75-2.92 1.75-6.58 0-2.59 0.39-5.08 0.99-6.23 1.32-2.56 3.82-2.63 5.09-0.13zm-5.56 19.36c-0.78 1.36-1.13 3.44-1.15 6.85-0.03 4.21-3.45 32.96-4.26 35.78-0.15 0.54-1.46 9.17-2.9 19.2-3.58 24.8-3.88 26.34-4.95 25.93-0.63-0.25-0.52 0.4 0.39 2.29 0.7 1.44 1.27 2.93 1.27 3.31 0 0.8 32.42 0.96 33.68 0.16 0.6-0.38 0.47-1.5-0.53-4.71-0.85-2.72-2.23-12.49-3.9-27.63-3.72-33.8-6.62-48.88-11.09-57.74-1.13-2.24-1.88-4.76-1.88-6.31 0-4.42-0.73-3.97-4.68 2.87zm-640.82 50.03c-0.39-0.4-5.49 21.01-6.92 29.04-0.73 4.12-2.09 12.02-3.01 17.58-0.92 5.54-2.39 13.45-3.26 17.56-0.87 4.12-1.59 7.86-1.59 8.3-0.01 1.59 1.79 0.78 2.17-0.97 3.67-16.96 6.82-33.67 9.52-50.53 1.83-11.41 3.22-20.85 3.09-20.98zm252.2 197.1c1.25 0 1.76 0.13 1.13 0.3-0.62 0.16-1.65 0.16-2.28 0-0.62-0.17-0.11-0.3 1.15-0.3zm-456.8 41.96c3.94 0.15 16.39 0.54 27.67 0.87 11.28 0.33 21.83 0.88 23.45 1.23 4.92 1.07 120.46 0.85 143.9-0.27 20.38-0.97 99.24-1.25 119.49-0.41 8.97 0.36 9.87 0.3 10.99-0.82 0.95-0.96 1.7-1.11 3.58-0.73 1.3 0.27 3.24 0.53 4.32 0.58 1.07 0.05 2.39 0.37 2.93 0.72 0.53 0.33 1.51 0.52 2.16 0.42 0.66-0.11 2.27 0.33 3.59 0.97 4.12 2.02 158.12 2.89 165.77 0.93 9.97-2.54 38.24-4.15 57.36-3.27 6.45 0.29 16.42 0.55 22.16 0.58 20.62 0.08 37.78 3.58 44.72 9.12 2.04 1.63 8.34 5.43 14 8.44 17.34 9.25 18.16 9.94 27.33 23.15 13.56 19.55 20.14 32.42 26.19 51.35 5.76 18.02 6.03 22.41 2.69 43.67-1.99 12.61-2.68 20.31-2.57 28.64l0.11 7.81-5.45 0.77c-10.59 1.51-26.68 1.73-41.85 0.59-9.14-0.69-16.86-0.93-21.49-0.65-8.22 0.48-15.58-1.06-17.16-3.61-1.02-1.66-2.1-13.67-2.12-23.79-0.09-38.59-12.6-56-38.74-53.92-3.58 0.29-7.98 0.44-9.77 0.33-1.79-0.11-4.1 0.13-5.13 0.52-1.04 0.4-2.94 0.88-4.24 1.08-1.29 0.2-4.7 0.77-7.56 1.27-6.06 1.06-7.03 1.12-6.6 0.42 0.78-1.26-46.49-3.71-71.44-3.71h-24.63l-1.22 1.5c-1.14 1.41-1.43 1.45-4.99 0.83-8.15-1.44-8-1.43-8-0.39 0 1.14-0.12 1.15-3.58 0.35-2.24-0.52-2.8-0.41-4.07 0.78-1.23 1.15-1.71 1.26-2.93 0.63-3.78-1.91-25.18-4.29-29.72-3.31-1.21 0.27-2.88 0.23-3.72-0.09-2.26-0.86-15.55-1.86-34.13-2.57-9.13-0.34-22.75-1.11-30.28-1.69-11.03-0.85-18.94-0.98-41.02-0.67-15.04 0.22-46.39 0.55-69.67 0.73-38.98 0.31-96.97 1.19-126.98 1.93-6.81 0.17-15.45 0.73-19.21 1.26-7.49 1.04-24 1.32-37.8 0.65-16.52-0.8-29.74 4.8-38.22 16.2-4.2 5.64-3.98 3.75-6.72 59.35-3.6 73.09-0.83 119.9 8.22 138.62 8.36 17.31 15.22 21.36 36.42 21.49 7.17 0.04 16.84 0.3 21.49 0.57 8.85 0.52 63.83-0.51 82.38-1.54 5.91-0.33 17.62-0.93 26.04-1.32 8.42-0.4 16.27-1.03 17.45-1.4 1.39-0.42 2.43-0.44 2.93-0.03 0.44 0.35 1.96 0.78 3.39 0.98 1.43 0.18 3.93 0.63 5.53 0.99 1.62 0.36 10.12 0.86 18.89 1.1 9.75 0.28 16.12 0.71 16.38 1.12 0.24 0.39 5.61 0.91 12.69 1.24 6.76 0.31 20.63 1.08 30.84 1.7 20.88 1.27 33.31 1.34 112.65 0.63 48.87-0.44 72.67-0.81 133.17-2.07 8.46-0.18 17.39-0.75 21.81-1.4 8.24-1.22 31.53-1.55 44.93-0.64 25.42 1.71 38.18-12.67 40.99-46.15 0.36-4.3 0.97-11.89 1.35-16.86 0.38-4.99 0.87-10.35 1.08-11.93l0.4-2.87 4.63 0.36c7.17 0.56 56.04 0.67 62.25 0.14 5.08-0.43 5.75-0.34 8.14 1.05l2.6 1.51 0.48 8.44c0.26 4.65 1.1 15.45 1.86 24.01 3.76 42.21-0.54 61.2-19.72 87.06-17.27 23.27-48.2 43.23-75.94 49-10 2.07-36.66 1.4-48.1-1.22-14.49-3.32-13.88-3.23-13.88-2.19 0 5.25-17.51 5.48-34.58 0.45-5.86-1.72-75.29-1.86-109.01-0.21-23.54 1.14-62.5 0.96-90.81-0.43-11.13-0.55-15.34-0.56-15.52-0.04-0.16 0.49-3.72 0.72-10.95 0.72-8.91 0-11 0.18-12.38 1.09-1.44 0.94-2.06 0.98-4.83 0.27-1.75-0.45-3.5-0.62-3.88-0.38-0.39 0.24-1.14 0.08-1.67-0.36-1.13-0.94-15.26-0.56-44.56 1.2-22.15 1.32-108.92 1.48-140.43 0.25-17.99-0.7-19.28-0.67-24.74 0.53-4.9 1.09-8.33 1.28-22.82 1.29l-17.05 0.02-9.64-2.21c-14.49-3.32-13.88-3.23-13.88-2.19 0 8.98-37.34 3.06-52.05-8.26-28.61-22-39.58-63.66-39.79-151.02-0.02-10.32-0.73-10.56-1.96-0.68-0.97 7.7-0.47 24.92 0.99 34.2 1.45 9.25 1.41 9.59-1.06 9.23l-2.05-0.3 0.45-20.25c0.53-24.71 1.39-46.76 2.67-68.73 2.17-37.17 2.98-90.5 1.7-110.63l-0.48-7.49 3.41-11.72c8.64-29.63 17.05-47.47 31.08-65.95 9.03-11.88 19.52-14.82 59.37-16.61 2.5-0.12 7.78-0.09 11.72 0.05zm741.36 12.37l6.99 0.41c3.86 0.23 19.17 0.59 34.03 0.81 29.67 0.43 30.89 0.58 34.62 4.05l2.57 2.4 0.6 59.18c0.4 38.86 0.84 59.41 1.27 59.84 0.46 0.46 2.02-0.65 4.94-3.53 4.32-4.25 5.23-5.73 13.96-22.43 6.29-12.05 12.14-21.46 21.84-35.14 5.09-7.19 15.44-25.25 22.18-38.72 7.3-14.59 11.76-21.61 15.17-23.9l2.21-1.48h79l1.79 1.86 1.78 1.86-0.97 4.22c-1.46 6.24-3.7 11.79-8.41 20.78-4.57 8.71-5.86 12.14-7.19 19.14-0.67 3.51-1.74 5.96-4.65 10.72-15.05 24.52-21.13 34.74-28.66 48.15-12.62 22.44-22.83 41.69-29.35 55.31-7.3 15.24-13.83 28.01-15 29.34-2.77 3.14 0.43 13.03 6.62 20.45 4.24 5.09 6.05 8.36 10.13 18.35 4.47 10.96 11.63 25.6 11.68 23.86 0.03-1.68 5.18 8.8 5.18 10.56 0 0.78 1.79 5.19 3.98 9.79 5.61 11.79 9.45 19.9 12.29 25.95 1.34 2.86 3.98 8.43 5.86 12.36 11.5 24.11 16.74 35.51 23.6 51.42 6.58 15.24 10.42 25.26 10.62 27.65 0.1 1.26 0.39 3.07 0.63 4.03 1.11 4.3-22.1 5.41-70.87 3.39l-9.65-0.4-4.39-5.15c-4.23-4.97-6.56-8.53-15.28-23.34-4.32-7.32-5.41-8.93-12.51-18.32-6.93-9.2-8.98-12.86-22.37-39.93-8.85-17.88-21.5-41.32-22.31-41.32-0.87 0-1.35 4.53-0.92 8.64 0.24 2.23 0.6 6.24 0.8 8.93 0.21 2.68 0.66 5.24 1.02 5.67 0.42 0.52 0.39 1.92-0.07 4.1-1.29 5.98-0.72 44.19 1.2 80.24 0.6 11.33 0.65 11.62 2.28 12.9 2.07 1.63 2.17 4.17 0.25 6.22-1.72 1.82-2.92 1.92-3.45 0.27-0.38-1.2-0.45-1.2-3.03 0.05-4.73 2.28-9.62 2.65-28.24 2.15-9.68-0.26-19.64-0.37-22.15-0.24-4.31 0.23-9.13 0.23-21.81 0.01-7.98-0.14-13.92-2.3-11.53-4.2 2.04-1.62 1.92-85.24-0.16-109.59-0.47-5.56-0.39-9.83 0.37-17.9 1.35-14.36 1.96-40.76 2.12-91.95 0.07-23.62 0.4-49.39 0.73-57.27 0.34-7.87 0.62-38.15 0.63-67.28zm-753 1.8c-17.66 2.53-42.59 11.31-44.59 15.7-0.81 1.77-3.3 3.01-4.35 2.17-0.86-0.69-9.42 5.2-13.22 9.09-11.2 11.48-14.35 24.54-14.41 59.72-0.02 12.13-0.66 21.51-1.73 25.11-0.57 1.94-1.46 1.25-1.67-1.31-0.61-7.36-3.95 55.38-4.02 75.68l-0.09 21.8 1.75 1.45 1.75 1.46-0.91 4.56c-1.25 6.23-1.23 7.72 0.09 7.22 0.82-0.32 0.93-0.15 0.5 0.74-1.14 2.42-1.32 53.47-0.2 58.09 0.88 3.63 0.9 4.7 0.17 7.49-9.99 37.78 21.83 83.37 69.69 99.84 20.9 7.19 25.84 7.66 78.23 7.41 11.82-0.06 46.4-0.14 76.84-0.19 41.45-0.07 58.62-0.34 68.37-1.05 7.17-0.52 18.26-1.22 24.66-1.54 10.25-0.52 11.8-0.75 13.03-1.89 2.49-2.33 4.42-2.67 10.78-1.87l5.91 0.75 4.07-2.08c8.63-4.43 37.28-5.63 82.53-3.45 18.41 0.88 18.47 0.89 16.57 2.28-1.17 0.86-1.11 0.94 1.02 1.28 6.66 1.08 31.44 3.03 39.06 3.08 14.11 0.08 47.79-1 48.67-1.57 0.49-0.32 1.37 0 2.24 0.81 1.74 1.62 2.39 1.66 4.41 0.25 1.91-1.34 6.02-1.44 14.5-0.37 4.37 0.56 17.91 0.81 43.83 0.81 36.49 0 40.78 0.21 39.68 1.98-0.2 0.34-0.06 0.62 0.33 0.62 0.39 0 0.88-0.44 1.09-0.98 0.47-1.22 2.79-1.26 4.49-0.07 6.08 4.26 29.99 4.96 47.09 1.39 34.06-7.11 61.38-25.95 73.64-50.78 4.59-9.28 5.08-10.73 3.66-10.73-1.35 0-1.3-0.38 0.69-5.26 5.93-14.56 8.24-47.86 4.21-60.58-3.77-11.89-13.53-15.84-30.99-12.53-2.86 0.54-9.78 1.16-15.38 1.37l-10.17 0.38-0.41 4.44c-0.23 2.44-1.41 8.33-2.63 13.09-2.5 9.72-3.64 16.42-3.64 21.33 0 6.03-4.85 12.53-14.32 19.2-4.87 3.44-11.08 9.43-13.33 12.89-3.02 4.62-18.48 5.51-30.5 1.74-2.22-0.69-5.7-1.27-7.73-1.27-2.03-0.01-3.79-0.26-3.9-0.56-0.61-1.55-63.76-2.47-97.25-1.42-18.66 0.58-70.95-0.1-97.67-1.26-50.5-2.21-122.95-2.22-138.7-0.02-2.51 0.35-14.52 0.73-26.7 0.85-14.66 0.14-22.74 0.46-23.91 0.96-1.45 0.6-1.87 0.56-2.32-0.24-0.35-0.62-1.84-1.08-4.09-1.25-1.95-0.15-6.98-0.62-11.19-1.04-16.35-1.66-95.76 1.56-93.53 3.79 1.75 1.74-21.32 3.99-36.22 3.53-31.86-0.99-48.21-28.18-51.12-85.03-0.84-16.32 0.18-111.1 1.29-120.72 2.93-25.24 7.14-37.96 17.25-52.16l3.55-4.97 5.4-0.26c4.35-0.21 6.33-0.67 10.19-2.4 4.05-1.81 5.59-2.15 10.09-2.22 6.98-0.1 22.15 0.91 22.56 1.5 0.8 1.14 51.51 2.12 80.42 1.54 44.75-0.88 76.42-0.46 134.47 1.8 32.22 1.25 97.62 0.94 120.7-0.58l19.44-1.27 1.6 1.59c1.21 1.22 2.01 1.5 3.35 1.19 0.96-0.22 4.97-0.73 8.91-1.12 3.94-0.4 8.19-1.18 9.44-1.74 2.73-1.21 7.34-1.18 29.96 0.18 66.92 4.02 105.4 3.69 115.99-1.01 5.71-2.54 14.93-2.95 22.88-1.02 18.45 4.47 29.2 24.35 31.38 58.02 0.51 7.85 2.22 24.29 2.7 25.87 0.32 1.06 2.42 1.14 32.06 1.14 36.51 0 34.62 0.3 34.62-5.42 0-1.87 0.45-7.05 1.01-11.52 4.97-39.74-3.75-62.81-37.43-99.03-17.51-18.85-15.47-17.23-28.12-22.22-22.32-8.8-44.28-12.62-68.3-11.89-7.7 0.23-31 0.54-51.77 0.68-20.77 0.14-48.17 0.57-60.88 0.94-12.72 0.38-37.83 0.7-55.8 0.71-18.87 0.01-33.36 0.28-34.29 0.63-1.05 0.4-3.71 0.35-7.54-0.13l-5.92-0.74-4.06 2.08c-8.64 4.43-37.29 5.62-82.53 3.45-18.41-0.89-18.48-0.9-16.57-2.29 1.17-0.85 1.1-0.93-1.03-1.28-6.65-1.08-31.43-3.03-39.06-3.08-14.1-0.08-47.79 1.01-48.67 1.58-0.48 0.31-1.37-0.01-2.23-0.82-1.74-1.61-2.4-1.65-4.41-0.24-1.91 1.33-5.92 1.43-14.69 0.38-7.22-0.87-99.07-1.45-100.39-0.63-0.42 0.26-0.87 0.13-1-0.27-0.4-1.2-29.27-1.4-37.23-0.26zm764.17 3.42l-2.17 0.26 0.37 4.35c1.31 15.29 0.89 209.09-0.56 256.53-1.37 44.7-1.04 125.78 0.52 127.33 0.13 0.14 12.3-0.49 27.04-1.39 14.74-0.91 28.4-1.46 30.37-1.23 2.13 0.25 4.69 0.1 6.38-0.37l2.82-0.79 0.14-30.35c0.08-16.7 0.42-35.93 0.77-42.74 0.8-15.86 0.8-38.14 0.01-51.44-0.82-13.57-0.12-23.29 1.82-25.22 1.7-1.7 0.41-3.36 10.54 13.51 31.5 52.4 53.18 90.5 67.6 118.77 5.21 10.2 9.78 18.76 10.16 19.03 1.2 0.82 3.8 0.54 5-0.55 1.07-0.96 1.34-0.89 3.63 0.95 5.07 4.07 10.95 4.97 19.42 2.97 3.29-0.77 8.71-1.15 19.53-1.35 18.16-0.33 17.99-0.3 17.3-2.66-1.12-3.82-2.85-7.17-7.86-15.15-4.29-6.82-5.65-9.68-7.78-16.33-4.43-13.86-10.56-28.08-22.4-51.99-11.52-23.27-18.7-39.53-21.7-49.13-4.67-14.94-5.91-17.31-19.84-37.91-12.89-19.07-12.93-19.14-12.93-25.4 0-8.28 4.34-17.79 14.93-32.68 12.16-17.11 18.61-27.71 21.9-35.99 0.96-2.43 2.07-4.31 2.47-4.18 1.06 0.35 13.17-20.97 13.64-24.01 0.22-1.39 2.13-6.05 4.25-10.34 2.12-4.3 4.93-11.18 6.24-15.3 2.85-8.95 6.23-16.19 13.08-27.98 7.38-12.69 17.91-33.58 17.91-35.52 0-1.94-2.35-1.85-10.79 0.43-6.16 1.67-10.08 1.59-14.89-0.34-4.92-1.97-12.06-2.62-18.92-1.75-23.93 3.06-24.42 3.16-25.92 5.02-5.86 7.25-12.41 19.22-24.78 45.26-1.64 3.45-4.7 8.87-6.8 12.04-2.1 3.18-5.52 9-7.6 12.93-2.08 3.94-4.73 8.92-5.89 11.06-1.16 2.15-4.09 7.57-6.51 12.05-4.79 8.85-17.45 30.98-21.59 37.72-2.08 3.39-2.99 4.3-4.65 4.64-2.74 0.56-3.88 1.59-5.44 4.91-1.56 3.3-2.33 4.02-4.84 4.48-3.72 0.68-3.83 0.2-2.6-10.85 1.86-16.56 3.53-103.45 2.08-107.99-0.16-0.51-0.61-3.62-1-6.91-1.92-16.04-6.61-22.14-15.47-20.11-1.64 0.38-2.35 0.19-3.44-0.89-1.15-1.15-1.84-1.3-4.51-0.95-3.77 0.51-6.48-0.55-5.24-2.05 0.65-0.78 0.23-0.93-2.73-0.94-1.92-0.01-6.72-0.44-10.66-0.97-6.7-0.9-15.4-1.11-20.41-0.49zm141.85 379.59c1.82 4.67 4.03 8.4 6.13 10.36 2.95 2.76 1.99 0-2.29-6.55-5.03-7.71-5.56-8.23-3.84-3.81z"/>
	</g>
</svg>