<?xml version="1.0" encoding="UTF-8"?>
<svg version="1.1" xmlns="http://www.w3.org/2000/svg" width="1000" height="1000">
<path d="M0 0 C29.7 0 59.4 0 90 0 C90 3.63 90 7.26 90 11 C108.81 11 127.62 11 147 11 C147 14.96 147 18.92 147 23 C158.22 23 169.44 23 181 23 C181 26.63 181 30.26 181 34 C188.59 34 196.18 34 204 34 C204 37.63 204 41.26 204 45 C211.59 45 219.18 45 227 45 C227 48.96 227 52.92 227 57 C234.59 57 242.18 57 250 57 C250 60.63 250 64.26 250 68 C253.63 68 257.26 68 261 68 C261 71.96 261 75.92 261 80 C268.59 80 276.18 80 284 80 C284 83.63 284 87.26 284 91 C287.63 91 291.26 91 295 91 C295 94.63 295 98.26 295 102 C298.63 102 302.26 102 306 102 C306 105.96 306 109.92 306 114 C309.96 114 313.92 114 318 114 C318 117.63 318 121.26 318 125 C321.63 125 325.26 125 329 125 C329 128.63 329 132.26 329 136 C332.63 136 336.26 136 340 136 C340 139.96 340 143.92 340 148 C343.96 148 347.92 148 352 148 C352 155.26 352 162.52 352 170 C355.63 170 359.26 170 363 170 C363 173.96 363 177.92 363 182 C366.96 182 370.92 182 375 182 C375 189.59 375 197.18 375 205 C378.63 205 382.26 205 386 205 C386 212.26 386 219.52 386 227 C389.63 227 393.26 227 397 227 C397 238.22 397 249.44 397 261 C400.96 261 404.92 261 409 261 C409 272.22 409 283.44 409 295 C412.63 295 416.26 295 420 295 C420 351.43 420 407.86 420 466 C416.37 466 412.74 466 409 466 C409 480.85 409 495.7 409 511 C405.04 511 401.08 511 397 511 C397 518.59 397 526.18 397 534 C393.37 534 389.74 534 386 534 C386 545.22 386 556.44 386 568 C382.37 568 378.74 568 375 568 C375 571.96 375 575.92 375 580 C371.04 580 367.08 580 363 580 C363 587.26 363 594.52 363 602 C359.37 602 355.74 602 352 602 C352 605.96 352 609.92 352 614 C348.04 614 344.08 614 340 614 C340 621.26 340 628.52 340 636 C336.37 636 332.74 636 329 636 C329 639.96 329 643.92 329 648 C325.37 648 321.74 648 318 648 C318 651.63 318 655.26 318 659 C314.04 659 310.08 659 306 659 C306 662.63 306 666.26 306 670 C302.37 670 298.74 670 295 670 C295 673.96 295 677.92 295 682 C287.41 682 279.82 682 272 682 C272 685.63 272 689.26 272 693 C268.37 693 264.74 693 261 693 C261 696.96 261 700.92 261 705 C257.37 705 253.74 705 250 705 C250 708.63 250 712.26 250 716 C242.41 716 234.82 716 227 716 C227 719.63 227 723.26 227 727 C219.41 727 211.82 727 204 727 C204 730.96 204 734.92 204 739 C192.78 739 181.56 739 170 739 C170 742.63 170 746.26 170 750 C162.41 750 154.82 750 147 750 C147 746.37 147 742.74 147 739 C143.37 739 139.74 739 136 739 C136 690.16 136 641.32 136 591 C132.37 591 128.74 591 125 591 C125 583.41 125 575.82 125 568 C121.04 568 117.08 568 113 568 C113 560.41 113 552.82 113 545 C128.18 545 143.36 545 159 545 C159 541.37 159 537.74 159 534 C170.22 534 181.44 534 193 534 C193 530.37 193 526.74 193 523 C200.26 523 207.52 523 215 523 C215 519.04 215 515.08 215 511 C218.96 511 222.92 511 227 511 C227 507.37 227 503.74 227 500 C230.63 500 234.26 500 238 500 C238 496.37 238 492.74 238 489 C241.96 489 245.92 489 250 489 C250 485.04 250 481.08 250 477 C253.63 477 257.26 477 261 477 C261 469.74 261 462.48 261 455 C264.63 455 268.26 455 272 455 C272 436.19 272 417.38 272 398 C275.96 398 279.92 398 284 398 C284 379.19 284 360.38 284 341 C280.04 341 276.08 341 272 341 C272 329.78 272 318.56 272 307 C268.37 307 264.74 307 261 307 C261 299.41 261 291.82 261 284 C257.37 284 253.74 284 250 284 C250 280.37 250 276.74 250 273 C246.04 273 242.08 273 238 273 C238 265.41 238 257.82 238 250 C241.96 250 245.92 250 250 250 C250 227.56 250 205.12 250 182 C246.04 182 242.08 182 238 182 C238 178.04 238 174.08 238 170 C223.15 170 208.3 170 193 170 C193 173.96 193 177.92 193 182 C185.41 182 177.82 182 170 182 C170 185.63 170 189.26 170 193 C162.41 193 154.82 193 147 193 C147 196.96 147 200.92 147 205 C132.15 205 117.3 205 102 205 C102 201.04 102 197.08 102 193 C64.38 193 26.76 193 -12 193 C-12 196.96 -12 200.92 -12 205 C-26.85 205 -41.7 205 -57 205 C-57 201.04 -57 197.08 -57 193 C-64.59 193 -72.18 193 -80 193 C-80 189.37 -80 185.74 -80 182 C-87.59 182 -95.18 182 -103 182 C-103 178.04 -103 174.08 -103 170 C-117.85 170 -132.7 170 -148 170 C-148 173.96 -148 177.92 -148 182 C-151.96 182 -155.92 182 -160 182 C-160 204.44 -160 226.88 -160 250 C-156.04 250 -152.08 250 -148 250 C-148 257.59 -148 265.18 -148 273 C-151.96 273 -155.92 273 -160 273 C-160 276.63 -160 280.26 -160 284 C-163.63 284 -167.26 284 -171 284 C-171 291.59 -171 299.18 -171 307 C-174.63 307 -178.26 307 -182 307 C-182 318.22 -182 329.44 -182 341 C-185.96 341 -189.92 341 -194 341 C-194 359.81 -194 378.62 -194 398 C-190.04 398 -186.08 398 -182 398 C-182 416.81 -182 435.62 -182 455 C-178.37 455 -174.74 455 -171 455 C-171 462.26 -171 469.52 -171 477 C-167.37 477 -163.74 477 -160 477 C-160 480.96 -160 484.92 -160 489 C-156.04 489 -152.08 489 -148 489 C-148 492.63 -148 496.26 -148 500 C-144.37 500 -140.74 500 -137 500 C-137 503.63 -137 507.26 -137 511 C-133.04 511 -129.08 511 -125 511 C-125 514.96 -125 518.92 -125 523 C-117.74 523 -110.48 523 -103 523 C-103 526.63 -103 530.26 -103 534 C-91.78 534 -80.56 534 -69 534 C-69 537.63 -69 541.26 -69 545 C-53.82 545 -38.64 545 -23 545 C-23 552.59 -23 560.18 -23 568 C-26.96 568 -30.92 568 -35 568 C-35 575.59 -35 583.18 -35 591 C-38.63 591 -42.26 591 -46 591 C-46 598.59 -46 606.18 -46 614 C-72.07 614 -98.14 614 -125 614 C-125 610.04 -125 606.08 -125 602 C-128.96 602 -132.92 602 -137 602 C-137 598.37 -137 594.74 -137 591 C-140.63 591 -144.26 591 -148 591 C-148 587.37 -148 583.74 -148 580 C-151.96 580 -155.92 580 -160 580 C-160 576.04 -160 572.08 -160 568 C-163.63 568 -167.26 568 -171 568 C-171 564.37 -171 560.74 -171 557 C-174.63 557 -178.26 557 -182 557 C-182 553.04 -182 549.08 -182 545 C-189.59 545 -197.18 545 -205 545 C-205 541.37 -205 537.74 -205 534 C-212.59 534 -220.18 534 -228 534 C-228 537.63 -228 541.26 -228 545 C-224.04 545 -220.08 545 -216 545 C-216 548.96 -216 552.92 -216 557 C-212.37 557 -208.74 557 -205 557 C-205 560.63 -205 564.26 -205 568 C-201.37 568 -197.74 568 -194 568 C-194 571.96 -194 575.92 -194 580 C-190.04 580 -186.08 580 -182 580 C-182 583.63 -182 587.26 -182 591 C-178.37 591 -174.74 591 -171 591 C-171 602.22 -171 613.44 -171 625 C-167.37 625 -163.74 625 -160 625 C-160 628.63 -160 632.26 -160 636 C-152.41 636 -144.82 636 -137 636 C-137 639.96 -137 643.92 -137 648 C-129.41 648 -121.82 648 -114 648 C-114 651.63 -114 655.26 -114 659 C-95.19 659 -76.38 659 -57 659 C-57 655.37 -57 651.74 -57 648 C-53.37 648 -49.74 648 -46 648 C-46 678.03 -46 708.06 -46 739 C-49.63 739 -53.26 739 -57 739 C-57 742.63 -57 746.26 -57 750 C-64.59 750 -72.18 750 -80 750 C-80 746.37 -80 742.74 -80 739 C-91.22 739 -102.44 739 -114 739 C-114 735.04 -114 731.08 -114 727 C-121.59 727 -129.18 727 -137 727 C-137 723.37 -137 719.74 -137 716 C-144.59 716 -152.18 716 -160 716 C-160 712.37 -160 708.74 -160 705 C-163.63 705 -167.26 705 -171 705 C-171 701.04 -171 697.08 -171 693 C-174.63 693 -178.26 693 -182 693 C-182 689.37 -182 685.74 -182 682 C-189.59 682 -197.18 682 -205 682 C-205 678.04 -205 674.08 -205 670 C-208.63 670 -212.26 670 -216 670 C-216 666.37 -216 662.74 -216 659 C-219.96 659 -223.92 659 -228 659 C-228 655.37 -228 651.74 -228 648 C-231.63 648 -235.26 648 -239 648 C-239 644.04 -239 640.08 -239 636 C-242.63 636 -246.26 636 -250 636 C-250 628.74 -250 621.48 -250 614 C-253.96 614 -257.92 614 -262 614 C-262 610.04 -262 606.08 -262 602 C-265.63 602 -269.26 602 -273 602 C-273 594.74 -273 587.48 -273 580 C-276.96 580 -280.92 580 -285 580 C-285 576.04 -285 572.08 -285 568 C-288.63 568 -292.26 568 -296 568 C-296 556.78 -296 545.56 -296 534 C-299.63 534 -303.26 534 -307 534 C-307 526.41 -307 518.82 -307 511 C-310.96 511 -314.92 511 -319 511 C-319 496.15 -319 481.3 -319 466 C-322.63 466 -326.26 466 -330 466 C-330 409.57 -330 353.14 -330 295 C-326.37 295 -322.74 295 -319 295 C-319 283.78 -319 272.56 -319 261 C-315.04 261 -311.08 261 -307 261 C-307 249.78 -307 238.56 -307 227 C-303.37 227 -299.74 227 -296 227 C-296 219.74 -296 212.48 -296 205 C-292.37 205 -288.74 205 -285 205 C-285 197.41 -285 189.82 -285 182 C-281.04 182 -277.08 182 -273 182 C-273 178.04 -273 174.08 -273 170 C-269.37 170 -265.74 170 -262 170 C-262 162.74 -262 155.48 -262 148 C-258.04 148 -254.08 148 -250 148 C-250 144.04 -250 140.08 -250 136 C-246.37 136 -242.74 136 -239 136 C-239 132.37 -239 128.74 -239 125 C-235.37 125 -231.74 125 -228 125 C-228 121.37 -228 117.74 -228 114 C-224.04 114 -220.08 114 -216 114 C-216 110.04 -216 106.08 -216 102 C-212.37 102 -208.74 102 -205 102 C-205 98.37 -205 94.74 -205 91 C-201.37 91 -197.74 91 -194 91 C-194 87.37 -194 83.74 -194 80 C-186.41 80 -178.82 80 -171 80 C-171 76.04 -171 72.08 -171 68 C-167.37 68 -163.74 68 -160 68 C-160 64.37 -160 60.74 -160 57 C-152.41 57 -144.82 57 -137 57 C-137 53.04 -137 49.08 -137 45 C-129.41 45 -121.82 45 -114 45 C-114 41.37 -114 37.74 -114 34 C-106.41 34 -98.82 34 -91 34 C-91 30.37 -91 26.74 -91 23 C-79.78 23 -68.56 23 -57 23 C-57 19.04 -57 15.08 -57 11 C-38.19 11 -19.38 11 0 11 C0 7.37 0 3.74 0 0 Z " fill="#000000" transform="translate(455,125)"/>
</svg>
