<?xml version="1.0" encoding="UTF-8"?>
<svg version="1.1" xmlns="http://www.w3.org/2000/svg" width="1000" height="1000">
<path d="M0 0 C127.38 0 254.76 0 386 0 C386 3.96 386 7.92 386 12 C401.18 12 416.36 12 432 12 C432 15.63 432 19.26 432 23 C443.22 23 454.44 23 466 23 C466 26.63 466 30.26 466 34 C469.63 34 473.26 34 477 34 C477 37.96 477 41.92 477 46 C484.59 46 492.18 46 500 46 C500 49.63 500 53.26 500 57 C503.63 57 507.26 57 511 57 C511 60.63 511 64.26 511 68 C514.96 68 518.92 68 523 68 C523 71.96 523 75.92 523 80 C526.63 80 530.26 80 534 80 C534 83.63 534 87.26 534 91 C537.63 91 541.26 91 545 91 C545 98.59 545 106.18 545 114 C548.96 114 552.92 114 557 114 C557 117.63 557 121.26 557 125 C560.63 125 564.26 125 568 125 C568 136.22 568 147.44 568 159 C571.63 159 575.26 159 579 159 C579 174.18 579 189.36 579 205 C582.96 205 586.92 205 591 205 C591 332.38 591 459.76 591 591 C587.04 591 583.08 591 579 591 C579 606.18 579 621.36 579 637 C575.37 637 571.74 637 568 637 C568 648.22 568 659.44 568 671 C564.37 671 560.74 671 557 671 C557 674.63 557 678.26 557 682 C553.04 682 549.08 682 545 682 C545 689.59 545 697.18 545 705 C541.37 705 537.74 705 534 705 C534 708.63 534 712.26 534 716 C530.37 716 526.74 716 523 716 C523 719.96 523 723.92 523 728 C519.04 728 515.08 728 511 728 C511 731.63 511 735.26 511 739 C507.37 739 503.74 739 500 739 C500 742.63 500 746.26 500 750 C492.41 750 484.82 750 477 750 C477 753.96 477 757.92 477 762 C473.37 762 469.74 762 466 762 C466 765.63 466 769.26 466 773 C454.78 773 443.56 773 432 773 C432 776.63 432 780.26 432 784 C416.82 784 401.64 784 386 784 C386 787.96 386 791.92 386 796 C258.62 796 131.24 796 0 796 C0 792.04 0 788.08 0 784 C-15.18 784 -30.36 784 -46 784 C-46 780.37 -46 776.74 -46 773 C-57.22 773 -68.44 773 -80 773 C-80 769.37 -80 765.74 -80 762 C-83.63 762 -87.26 762 -91 762 C-91 758.04 -91 754.08 -91 750 C-98.59 750 -106.18 750 -114 750 C-114 746.37 -114 742.74 -114 739 C-117.63 739 -121.26 739 -125 739 C-125 735.37 -125 731.74 -125 728 C-128.96 728 -132.92 728 -137 728 C-137 724.04 -137 720.08 -137 716 C-140.63 716 -144.26 716 -148 716 C-148 712.37 -148 708.74 -148 705 C-151.63 705 -155.26 705 -159 705 C-159 697.41 -159 689.82 -159 682 C-162.96 682 -166.92 682 -171 682 C-171 678.37 -171 674.74 -171 671 C-174.63 671 -178.26 671 -182 671 C-182 659.78 -182 648.56 -182 637 C-185.63 637 -189.26 637 -193 637 C-193 621.82 -193 606.64 -193 591 C-196.96 591 -200.92 591 -205 591 C-205 463.62 -205 336.24 -205 205 C-201.04 205 -197.08 205 -193 205 C-193 189.82 -193 174.64 -193 159 C-189.37 159 -185.74 159 -182 159 C-182 147.78 -182 136.56 -182 125 C-178.37 125 -174.74 125 -171 125 C-171 121.37 -171 117.74 -171 114 C-167.04 114 -163.08 114 -159 114 C-159 106.41 -159 98.82 -159 91 C-155.37 91 -151.74 91 -148 91 C-148 87.37 -148 83.74 -148 80 C-144.37 80 -140.74 80 -137 80 C-137 76.04 -137 72.08 -137 68 C-133.04 68 -129.08 68 -125 68 C-125 64.37 -125 60.74 -125 57 C-121.37 57 -117.74 57 -114 57 C-114 53.37 -114 49.74 -114 46 C-106.41 46 -98.82 46 -91 46 C-91 42.04 -91 38.08 -91 34 C-87.37 34 -83.74 34 -80 34 C-80 30.37 -80 26.74 -80 23 C-68.78 23 -57.56 23 -46 23 C-46 19.37 -46 15.74 -46 12 C-30.82 12 -15.64 12 0 12 C0 8.04 0 4.08 0 0 Z M34 91 C34 94.96 34 98.92 34 103 C15.19 103 -3.62 103 -23 103 C-23 106.63 -23 110.26 -23 114 C-26.63 114 -30.26 114 -34 114 C-34 117.63 -34 121.26 -34 125 C-41.59 125 -49.18 125 -57 125 C-57 128.96 -57 132.92 -57 137 C-60.63 137 -64.26 137 -68 137 C-68 140.63 -68 144.26 -68 148 C-71.96 148 -75.92 148 -80 148 C-80 155.59 -80 163.18 -80 171 C-83.63 171 -87.26 171 -91 171 C-91 174.63 -91 178.26 -91 182 C-94.63 182 -98.26 182 -102 182 C-102 200.81 -102 219.62 -102 239 C-105.96 239 -109.92 239 -114 239 C-114 343.94 -114 448.88 -114 557 C-110.04 557 -106.08 557 -102 557 C-102 575.81 -102 594.62 -102 614 C-98.37 614 -94.74 614 -91 614 C-91 617.63 -91 621.26 -91 625 C-87.37 625 -83.74 625 -80 625 C-80 632.59 -80 640.18 -80 648 C-76.04 648 -72.08 648 -68 648 C-68 651.63 -68 655.26 -68 659 C-64.37 659 -60.74 659 -57 659 C-57 662.96 -57 666.92 -57 671 C-49.41 671 -41.82 671 -34 671 C-34 674.63 -34 678.26 -34 682 C-30.37 682 -26.74 682 -23 682 C-23 685.63 -23 689.26 -23 693 C-4.19 693 14.62 693 34 693 C34 696.96 34 700.92 34 705 C138.94 705 243.88 705 352 705 C352 701.04 352 697.08 352 693 C370.81 693 389.62 693 409 693 C409 689.37 409 685.74 409 682 C412.63 682 416.26 682 420 682 C420 678.37 420 674.74 420 671 C427.59 671 435.18 671 443 671 C443 667.04 443 663.08 443 659 C446.63 659 450.26 659 454 659 C454 655.37 454 651.74 454 648 C457.96 648 461.92 648 466 648 C466 640.41 466 632.82 466 625 C469.63 625 473.26 625 477 625 C477 621.37 477 617.74 477 614 C480.63 614 484.26 614 488 614 C488 595.19 488 576.38 488 557 C491.96 557 495.92 557 500 557 C500 452.06 500 347.12 500 239 C496.04 239 492.08 239 488 239 C488 220.19 488 201.38 488 182 C484.37 182 480.74 182 477 182 C477 178.37 477 174.74 477 171 C473.37 171 469.74 171 466 171 C466 163.41 466 155.82 466 148 C462.04 148 458.08 148 454 148 C454 144.37 454 140.74 454 137 C450.37 137 446.74 137 443 137 C443 133.04 443 129.08 443 125 C435.41 125 427.82 125 420 125 C420 121.37 420 117.74 420 114 C416.37 114 412.74 114 409 114 C409 110.37 409 106.74 409 103 C390.19 103 371.38 103 352 103 C352 99.04 352 95.08 352 91 C247.06 91 142.12 91 34 91 Z " fill="#000000" transform="translate(307,102)"/>
<path d="M0 0 C22.44 0 44.88 0 68 0 C68 3.63 68 7.26 68 11 C79.22 11 90.44 11 102 11 C102 14.63 102 18.26 102 22 C113.22 22 124.44 22 136 22 C136 25.96 136 29.92 136 34 C139.96 34 143.92 34 148 34 C148 37.63 148 41.26 148 45 C155.26 45 162.52 45 170 45 C170 48.96 170 52.92 170 57 C173.96 57 177.92 57 182 57 C182 60.63 182 64.26 182 68 C185.63 68 189.26 68 193 68 C193 71.63 193 75.26 193 79 C196.63 79 200.26 79 204 79 C204 82.96 204 86.92 204 91 C207.96 91 211.92 91 216 91 C216 98.26 216 105.52 216 113 C219.63 113 223.26 113 227 113 C227 116.96 227 120.92 227 125 C230.96 125 234.92 125 239 125 C239 136.22 239 147.44 239 159 C242.63 159 246.26 159 250 159 C250 170.22 250 181.44 250 193 C253.63 193 257.26 193 261 193 C261 215.44 261 237.88 261 261 C257.37 261 253.74 261 250 261 C250 272.22 250 283.44 250 295 C246.37 295 242.74 295 239 295 C239 302.59 239 310.18 239 318 C235.04 318 231.08 318 227 318 C227 325.59 227 333.18 227 341 C223.37 341 219.74 341 216 341 C216 348.26 216 355.52 216 363 C212.04 363 208.08 363 204 363 C204 366.96 204 370.92 204 375 C200.37 375 196.74 375 193 375 C193 378.63 193 382.26 193 386 C189.37 386 185.74 386 182 386 C182 389.63 182 393.26 182 397 C178.04 397 174.08 397 170 397 C170 400.96 170 404.92 170 409 C162.74 409 155.48 409 148 409 C148 412.63 148 416.26 148 420 C144.04 420 140.08 420 136 420 C136 423.96 136 427.92 136 432 C124.78 432 113.56 432 102 432 C102 435.63 102 439.26 102 443 C90.78 443 79.56 443 68 443 C68 446.63 68 450.26 68 454 C45.56 454 23.12 454 0 454 C0 450.37 0 446.74 0 443 C-11.22 443 -22.44 443 -34 443 C-34 439.37 -34 435.74 -34 432 C-45.22 432 -56.44 432 -68 432 C-68 428.04 -68 424.08 -68 420 C-71.96 420 -75.92 420 -80 420 C-80 416.37 -80 412.74 -80 409 C-87.26 409 -94.52 409 -102 409 C-102 405.04 -102 401.08 -102 397 C-105.96 397 -109.92 397 -114 397 C-114 393.37 -114 389.74 -114 386 C-117.63 386 -121.26 386 -125 386 C-125 382.37 -125 378.74 -125 375 C-128.63 375 -132.26 375 -136 375 C-136 371.04 -136 367.08 -136 363 C-139.96 363 -143.92 363 -148 363 C-148 355.74 -148 348.48 -148 341 C-151.63 341 -155.26 341 -159 341 C-159 337.04 -159 333.08 -159 329 C-162.96 329 -166.92 329 -171 329 C-171 317.78 -171 306.56 -171 295 C-174.63 295 -178.26 295 -182 295 C-182 283.78 -182 272.56 -182 261 C-185.63 261 -189.26 261 -193 261 C-193 238.56 -193 216.12 -193 193 C-189.37 193 -185.74 193 -182 193 C-182 181.78 -182 170.56 -182 159 C-178.37 159 -174.74 159 -171 159 C-171 147.78 -171 136.56 -171 125 C-167.04 125 -163.08 125 -159 125 C-159 121.04 -159 117.08 -159 113 C-155.37 113 -151.74 113 -148 113 C-148 105.74 -148 98.48 -148 91 C-144.04 91 -140.08 91 -136 91 C-136 87.04 -136 83.08 -136 79 C-132.37 79 -128.74 79 -125 79 C-125 75.37 -125 71.74 -125 68 C-121.37 68 -117.74 68 -114 68 C-114 64.37 -114 60.74 -114 57 C-110.04 57 -106.08 57 -102 57 C-102 53.04 -102 49.08 -102 45 C-94.74 45 -87.48 45 -80 45 C-80 41.37 -80 37.74 -80 34 C-76.04 34 -72.08 34 -68 34 C-68 30.04 -68 26.08 -68 22 C-56.78 22 -45.56 22 -34 22 C-34 18.37 -34 14.74 -34 11 C-22.78 11 -11.56 11 0 11 C0 7.37 0 3.74 0 0 Z M0 102 C0 105.63 0 109.26 0 113 C-11.22 113 -22.44 113 -34 113 C-34 116.96 -34 120.92 -34 125 C-37.96 125 -41.92 125 -46 125 C-46 128.63 -46 132.26 -46 136 C-49.63 136 -53.26 136 -57 136 C-57 139.63 -57 143.26 -57 147 C-60.63 147 -64.26 147 -68 147 C-68 150.96 -68 154.92 -68 159 C-71.96 159 -75.92 159 -80 159 C-80 170.22 -80 181.44 -80 193 C-83.63 193 -87.26 193 -91 193 C-91 215.44 -91 237.88 -91 261 C-87.37 261 -83.74 261 -80 261 C-80 272.22 -80 283.44 -80 295 C-76.04 295 -72.08 295 -68 295 C-68 298.96 -68 302.92 -68 307 C-64.37 307 -60.74 307 -57 307 C-57 310.63 -57 314.26 -57 318 C-53.37 318 -49.74 318 -46 318 C-46 321.63 -46 325.26 -46 329 C-42.04 329 -38.08 329 -34 329 C-34 332.96 -34 336.92 -34 341 C-22.78 341 -11.56 341 0 341 C0 344.63 0 348.26 0 352 C22.44 352 44.88 352 68 352 C68 348.37 68 344.74 68 341 C79.22 341 90.44 341 102 341 C102 337.04 102 333.08 102 329 C105.96 329 109.92 329 114 329 C114 325.37 114 321.74 114 318 C117.63 318 121.26 318 125 318 C125 314.37 125 310.74 125 307 C128.63 307 132.26 307 136 307 C136 303.04 136 299.08 136 295 C139.96 295 143.92 295 148 295 C148 283.78 148 272.56 148 261 C151.63 261 155.26 261 159 261 C159 238.56 159 216.12 159 193 C155.37 193 151.74 193 148 193 C148 181.78 148 170.56 148 159 C144.04 159 140.08 159 136 159 C136 155.04 136 151.08 136 147 C132.37 147 128.74 147 125 147 C125 143.37 125 139.74 125 136 C121.37 136 117.74 136 114 136 C114 132.37 114 128.74 114 125 C110.04 125 106.08 125 102 125 C102 121.04 102 117.08 102 113 C90.78 113 79.56 113 68 113 C68 109.37 68 105.74 68 102 C45.56 102 23.12 102 0 102 Z " fill="#000000" transform="translate(466,273)"/>
<path d="M0 0 C14.85 0 29.7 0 45 0 C45 3.63 45 7.26 45 11 C48.96 11 52.92 11 57 11 C57 14.96 57 18.92 57 23 C60.63 23 64.26 23 68 23 C68 37.85 68 52.7 68 68 C64.37 68 60.74 68 57 68 C57 71.96 57 75.92 57 80 C53.04 80 49.08 80 45 80 C45 83.63 45 87.26 45 91 C30.15 91 15.3 91 0 91 C0 87.37 0 83.74 0 80 C-3.96 80 -7.92 80 -12 80 C-12 76.04 -12 72.08 -12 68 C-15.63 68 -19.26 68 -23 68 C-23 53.15 -23 38.3 -23 23 C-19.37 23 -15.74 23 -12 23 C-12 19.04 -12 15.08 -12 11 C-8.04 11 -4.08 11 0 11 C0 7.37 0 3.74 0 0 Z " fill="#000000" transform="translate(682,250)"/>
<path d="M0 0 C3.63 0 7.26 0 11 0 C11 3.63 11 7.26 11 11 C7.37 11 3.74 11 0 11 C0 7.37 0 3.74 0 0 Z " fill="#1B1B1B" transform="translate(716,330)"/>
<path d="M0 0 C3.63 0 7.26 0 11 0 C11 3.63 11 7.26 11 11 C7.37 11 3.74 11 0 11 C0 7.37 0 3.74 0 0 Z " fill="#101010" transform="translate(682,330)"/>
<path d="M0 0 C3.63 0 7.26 0 11 0 C11 3.63 11 7.26 11 11 C7.37 11 3.74 11 0 11 C0 7.37 0 3.74 0 0 Z " fill="#090909" transform="translate(659,307)"/>
</svg>
