<?xml version="1.0" encoding="UTF-8"?>
<svg version="1.1" xmlns="http://www.w3.org/2000/svg" width="1000" height="1000">
<path d="M0 0 C13.53 0 27.06 0 41 0 C41 4.62 41 9.24 41 14 C63.11 14 85.22 14 108 14 C108 18.29 108 22.58 108 27 C116.91 27 125.82 27 135 27 C135 31.62 135 36.24 135 41 C143.91 41 152.82 41 162 41 C162 45.29 162 49.58 162 54 C166.62 54 171.24 54 176 54 C176 58.62 176 63.24 176 68 C180.29 68 184.58 68 189 68 C189 76.91 189 85.82 189 95 C193.62 95 198.24 95 203 95 C203 103.91 203 112.82 203 122 C207.29 122 211.58 122 216 122 C216 135.53 216 149.06 216 163 C220.62 163 225.24 163 230 163 C230 305.56 230 448.12 230 595 C167.63 595 105.26 595 41 595 C41 474.55 41 354.1 41 230 C36.38 230 31.76 230 27 230 C27 221.09 27 212.18 27 203 C22.71 203 18.42 203 14 203 C14 198.71 14 194.42 14 190 C9.38 190 4.76 190 0 190 C0 185.38 0 180.76 0 176 C-26.73 176 -53.46 176 -81 176 C-81 180.62 -81 185.24 -81 190 C-89.91 190 -98.82 190 -108 190 C-108 194.29 -108 198.58 -108 203 C-112.29 203 -116.58 203 -121 203 C-121 211.91 -121 220.82 -121 230 C-125.62 230 -130.24 230 -135 230 C-135 350.45 -135 470.9 -135 595 C-197.37 595 -259.74 595 -324 595 C-324 407.56 -324 220.12 -324 27 C-265.92 27 -207.84 27 -148 27 C-148 44.82 -148 62.64 -148 81 C-143.71 81 -139.42 81 -135 81 C-135 76.71 -135 72.42 -135 68 C-130.38 68 -125.76 68 -121 68 C-121 63.38 -121 58.76 -121 54 C-116.71 54 -112.42 54 -108 54 C-108 49.71 -108 45.42 -108 41 C-103.38 41 -98.76 41 -94 41 C-94 36.38 -94 31.76 -94 27 C-80.8 27 -67.6 27 -54 27 C-54 22.71 -54 18.42 -54 14 C-36.18 14 -18.36 14 0 14 C0 9.38 0 4.76 0 0 Z " fill="#000000" transform="translate(770,405)"/>
<path d="M0 0 C62.37 0 124.74 0 189 0 C189 187.44 189 374.88 189 568 C126.63 568 64.26 568 0 568 C0 380.56 0 193.12 0 0 Z " fill="#000000" transform="translate(162,432)"/>
<path d="M0 0 C31.02 0 62.04 0 94 0 C94 4.29 94 8.58 94 13 C102.91 13 111.82 13 121 13 C121 17.62 121 22.24 121 27 C125.62 27 130.24 27 135 27 C135 35.91 135 44.82 135 54 C139.29 54 143.58 54 148 54 C148 62.91 148 71.82 148 81 C152.62 81 157.24 81 162 81 C162 98.82 162 116.64 162 135 C157.38 135 152.76 135 148 135 C148 143.91 148 152.82 148 162 C143.71 162 139.42 162 135 162 C135 166.29 135 170.58 135 175 C130.38 175 125.76 175 121 175 C121 179.62 121 184.24 121 189 C116.71 189 112.42 189 108 189 C108 193.29 108 197.58 108 202 C99.09 202 90.18 202 81 202 C81 206.62 81 211.24 81 216 C58.56 216 36.12 216 13 216 C13 211.38 13 206.76 13 202 C4.09 202 -4.82 202 -14 202 C-14 197.71 -14 193.42 -14 189 C-18.29 189 -22.58 189 -27 189 C-27 184.38 -27 179.76 -27 175 C-31.62 175 -36.24 175 -41 175 C-41 166.09 -41 157.18 -41 148 C-45.29 148 -49.58 148 -54 148 C-54 116.98 -54 85.96 -54 54 C-49.71 54 -45.42 54 -41 54 C-41 49.38 -41 44.76 -41 40 C-36.38 40 -31.76 40 -27 40 C-27 35.71 -27 31.42 -27 27 C-22.71 27 -18.42 27 -14 27 C-14 22.38 -14 17.76 -14 13 C-9.38 13 -4.76 13 0 13 C0 8.71 0 4.42 0 0 Z " fill="#000000" transform="translate(203,149)"/>
</svg>
